<svg id="visual" viewBox="0 0 900 600" width="900" height="600" xmlns="http://www.w3.org/2000/svg" xmlns:xlink="http://www.w3.org/1999/xlink" version="1.1"><rect width="900" height="600" fill="#1e1938"></rect><g><g transform="translate(467 36)"><path d="M0 -71.4L71.4 0L0 71.4L-71.4 0Z" fill="none" stroke="#b97296" stroke-width="2"></path></g><g transform="translate(64 142)"><path d="M0 -46L46 0L0 46L-46 0Z" fill="none" stroke="#b97296" stroke-width="2"></path></g><g transform="translate(76 505)"><path d="M0 -30L30 0L0 30L-30 0Z" stroke="#b97296" fill="none" stroke-width="2"></path></g><g transform="translate(387 523)"><path d="M0 -44L44 0L0 44L-44 0Z" stroke="#b97296" fill="none" stroke-width="2"></path></g><g transform="translate(12 275)"><path d="M0 -56L56 0L0 56L-56 0Z" stroke="#b97296" fill="none" stroke-width="2"></path></g><g transform="translate(640 49)"><path d="M0 -28L28 0L0 28L-28 0Z" stroke="#b97296" fill="none" stroke-width="2"></path></g></g></svg>