<svg id="visual" viewBox="0 0 960 540" width="960" height="540" xmlns="http://www.w3.org/2000/svg" xmlns:xlink="http://www.w3.org/1999/xlink" version="1.1"><rect width="960" height="540" fill="#1e1938"></rect><g><g transform="translate(520 459)"><path d="M0 -44.8L42.6 -13.9L26.3 36.3L-26.3 36.3L-42.6 -13.9Z" fill="none" stroke="#dd99bb" stroke-width="2"></path></g><g transform="translate(282 470)"><path d="M0 -39L37.1 -12.1L22.9 31.6L-22.9 31.6L-37.1 -12.1Z" fill="none" stroke="#dd99bb" stroke-width="2"></path></g><g transform="translate(626 106)"><path d="M0 -39L37.1 -12.1L22.9 31.6L-22.9 31.6L-37.1 -12.1Z" fill="none" stroke="#dd99bb" stroke-width="2"></path></g><g transform="translate(551 338)"><path d="M0 -40L38 -12.4L23.5 32.4L-23.5 32.4L-38 -12.4Z" fill="none" stroke="#dd99bb" stroke-width="2"></path></g><g transform="translate(101 187)"><path d="M0 -40L38 -12.4L23.5 32.4L-23.5 32.4L-38 -12.4Z" fill="none" stroke="#dd99bb" stroke-width="2"></path></g><g transform="translate(771 161)"><path d="M0 -42L39.9 -13L24.7 34L-24.7 34L-39.9 -13Z" fill="none" stroke="#dd99bb" stroke-width="2"></path></g><g transform="translate(126 338)"><path d="M0 -40L38 -12.4L23.5 32.4L-23.5 32.4L-38 -12.4Z" fill="none" stroke="#dd99bb" stroke-width="2"></path></g><g transform="translate(362 216)"><path d="M0 -39L37.1 -12.1L22.9 31.6L-22.9 31.6L-37.1 -12.1Z" fill="none" stroke="#dd99bb" stroke-width="2"></path></g><g transform="translate(370 98)"><path d="M0 -39L37.1 -12.1L22.9 31.6L-22.9 31.6L-37.1 -12.1Z" fill="none" stroke="#dd99bb" stroke-width="2"></path></g><g transform="translate(885 25)"><path d="M0 -39L37.1 -12.1L22.9 31.6L-22.9 31.6L-37.1 -12.1Z" fill="none" stroke="#dd99bb" stroke-width="2"></path></g><g transform="translate(683 416)"><path d="M0 -41L39 -12.7L24.1 33.2L-24.1 33.2L-39 -12.7Z" fill="none" stroke="#dd99bb" stroke-width="2"></path></g><g transform="translate(45 416)"><path d="M0 -42L39.9 -13L24.7 34L-24.7 34L-39.9 -13Z" fill="none" stroke="#dd99bb" stroke-width="2"></path></g><g transform="translate(950 341)"><path d="M0 -41L39 -12.7L24.1 33.2L-24.1 33.2L-39 -12.7Z" fill="none" stroke="#dd99bb" stroke-width="2"></path></g><g transform="translate(816 527)"><path d="M0 -39L37.1 -12.1L22.9 31.6L-22.9 31.6L-37.1 -12.1Z" fill="none" stroke="#dd99bb" stroke-width="2"></path></g><g transform="translate(297 352)"><path d="M0 -41L39 -12.7L24.1 33.2L-24.1 33.2L-39 -12.7Z" fill="none" stroke="#dd99bb" stroke-width="2"></path></g><g transform="translate(155 85)"><path d="M0 -41L39 -12.7L24.1 33.2L-24.1 33.2L-39 -12.7Z" fill="none" stroke="#dd99bb" stroke-width="2"></path></g></g></svg>