<svg id="visual" viewBox="0 0 900 600" width="900" height="600" xmlns="http://www.w3.org/2000/svg" xmlns:xlink="http://www.w3.org/1999/xlink" version="1.1"><rect x="0" y="0" width="900" height="600" fill="#1e1938"></rect><g fill="none" stroke="#b97296" stroke-width="3"><path d="M28.1 16.2L28.1 72.3L-28.1 72.3L-28.1 16.2L-76.7 -11.9L-48.6 -60.5L0 -32.4L48.6 -60.5L76.7 -11.9Z" transform="translate(779 572)"></path><path d="M12.4 7.2L12.4 32L-12.4 32L-12.4 7.2L-33.9 -5.2L-21.5 -26.7L0 -14.3L21.5 -26.7L33.9 -5.2Z" transform="translate(342 246)"></path><path d="M12.7 7.3L12.7 32.7L-12.7 32.7L-12.7 7.3L-34.7 -5.4L-22 -27.3L0 -14.6L22 -27.3L34.7 -5.4Z" transform="translate(757 301)"></path><path d="M27.3 15.7L27.3 70.2L-27.3 70.2L-27.3 15.7L-74.5 -11.5L-47.2 -58.7L0 -31.5L47.2 -58.7L74.5 -11.5Z" transform="translate(86 323)"></path><path d="M24 13.9L24 61.9L-24 61.9L-24 13.9L-65.6 -10.2L-41.6 -51.7L0 -27.7L41.6 -51.7L65.6 -10.2Z" transform="translate(556 407)"></path><path d="M20.5 11.8L20.5 52.9L-20.5 52.9L-20.5 11.8L-56 -8.7L-35.5 -44.2L0 -23.7L35.5 -44.2L56 -8.7Z" transform="translate(12 562)"></path><path d="M26.7 15.4L26.7 68.9L-26.7 68.9L-26.7 15.4L-73 -11.3L-46.3 -57.6L0 -30.8L46.3 -57.6L73 -11.3Z" transform="translate(778 19)"></path></g></svg>